<?xml version="1.0" standalone="no"?>
<!DOCTYPE svg PUBLIC "-//W3C//DTD SVG 1.1//EN" "http://www.w3.org/Graphics/SVG/1.1/DTD/svg11.dtd" >
<svg xmlns="http://www.w3.org/2000/svg">
<metadata>
This is a custom SVG webfont generated by Font Squirrel.
Copyright   : Copyright  1993 1994 2001 Adobe Systems Incorporated  All Rights Reserved
Designer    : Herb Lubalin Tom Carnase Ed Benguiat Adobe Type Staff
Foundry URL : httpwwwadobecomtype
</metadata>
<defs>
<font id="ITCAvantGardeGothicStdBkCn" horiz-adv-x="521" >
<font-face units-per-em="1000" ascent="740" descent="-260" />
<missing-glyph horiz-adv-x="241" />
<glyph unicode="&#xfb01;" horiz-adv-x="429" d="M291 481h-140v-481h-67v481h-62v63h62v41q0 46 14.5 80t32.5 50t44 25.5t40.5 11t30.5 1.5v-59q-95 -6 -95 -115v-35h207v-544h-67v481zM358 641h-67v99h67v-99z" />
<glyph unicode="&#xfb02;" horiz-adv-x="429" d="M291 481h-140v-481h-67v481h-62v63h62v41q0 46 14.5 80t32.5 50t44 25.5t40.5 11t30.5 1.5v-59q-95 -6 -95 -115v-35h140v196h67v-740h-67v481z" />
<glyph unicode=" "  horiz-adv-x="241" />
<glyph unicode="&#x09;" horiz-adv-x="241" />
<glyph unicode="&#xa0;" horiz-adv-x="241" />
<glyph unicode="!" horiz-adv-x="248" d="M161 740v-559h-74v559h74zM161 107v-107h-74v107h74z" />
<glyph unicode="&#x22;" horiz-adv-x="274" d="M98 464h-65v276h65v-276zM240 464h-64v276h64v-276z" />
<glyph unicode="#" d="M361 248l-28 -208h-54l28 208h-125l-28 -208h-54l29 208h-115v51h122l19 133h-116v50h123l27 197h53l-27 -197h125l27 197h53l-27 -197h113v-50h-120l-18 -133h113v-51h-120zM315 299l18 133h-125l-18 -133h125z" />
<glyph unicode="$" d="M294 793v-77q72 -10 109.5 -59.5t41.5 -113.5h-72q-7 54 -41.5 82t-71.5 28q-42 0 -74 -32t-32 -82q0 -20 4.5 -36.5t18.5 -30t21.5 -20.5t34 -18t33 -13.5t40.5 -14.5q30 -11 50.5 -22t48.5 -33t43 -58t15 -84q0 -75 -47 -132t-122 -61v-90h-62v90q-75 5 -123 61 t-50 137h73q5 -65 44 -100t90 -35t86 38t35 92q0 34 -11.5 58.5t-37.5 41.5t-46 25.5t-60 21.5l-9 3q-28 10 -49 21.5t-44.5 31.5t-36.5 52t-13 73q0 72 41.5 122t110.5 57v77h62z" />
<glyph unicode="%" horiz-adv-x="782" d="M30 580v1q0 77 47.5 124.5t120.5 47.5t120.5 -48t47.5 -125t-47.5 -124.5t-120.5 -47.5t-120.5 47.5t-47.5 124.5zM86 580v-1q0 -52 31.5 -85.5t80.5 -33.5t80.5 33.5t31.5 86.5q0 54 -31.5 87.5t-80.5 33.5t-80.5 -33.5t-31.5 -87.5zM416 160v1q0 76 47.5 123.5 t120.5 47.5t120.5 -47.5t47.5 -124.5t-47.5 -125t-120.5 -48t-120.5 48t-47.5 125zM472 160v-1q0 -53 31.5 -86.5t80.5 -33.5t80.5 33.5t31.5 87.5q0 53 -31.5 86.5t-80.5 33.5t-80.5 -33.5t-31.5 -86.5zM634 744l-423 -748h-63l424 748h62z" />
<glyph unicode="&#x26;" horiz-adv-x="637" d="M517 450h74l-120 -244l143 -167l-51 -46l-126 150q-1 -1 -13 -19.5t-15 -23.5t-15.5 -22.5t-19.5 -23.5t-20.5 -20t-25 -20t-26.5 -13.5t-31 -10.5t-34 -3q-88 0 -143.5 63t-55.5 148t46.5 142t113.5 88q-29 34 -41 50t-25.5 47t-14.5 64q0 71 46 117.5t113 46.5 q66 0 110.5 -47.5t44.5 -111.5q0 -60 -38 -106t-95 -77l128 -151zM276 691h-1q-42 0 -65.5 -28t-23.5 -67q0 -26 12 -52t23 -39t38 -43q53 30 78 61t25 72q0 38 -24 67t-62 29zM390 197l-146 176q-128 -63 -130 -169q1 -60 36 -103t93 -43q29 0 53.5 13.5t44.5 41.5t27.5 41 t21.5 43z" />
<glyph unicode="'" horiz-adv-x="222" d="M143 464h-64v276h64v-276z" />
<glyph unicode="(" horiz-adv-x="332" d="M304 749v-73q-77 -64 -124.5 -175t-47.5 -251q0 -269 172 -427v-73q-105 75 -171 206.5t-66 293.5q0 161 67.5 297t169.5 202z" />
<glyph unicode=")" horiz-adv-x="332" d="M28 -250v73q77 63 124.5 174.5t47.5 250.5q0 271 -172 428v73q105 -75 171.5 -207t66.5 -294q0 -160 -68 -296t-170 -202z" />
<glyph unicode="*" horiz-adv-x="361" d="M209 740l-12 -134l111 77l28 -50l-120 -56l121 -57l-29 -51l-111 78l12 -134h-58l12 135l-109 -79l-30 52l120 57l-120 54l28 51l112 -77l-13 134h58z" />
<glyph unicode="+" horiz-adv-x="537" d="M300 503v-221h204v-62h-204v-220h-63v220h-204v62h204v221h63z" />
<glyph unicode="," horiz-adv-x="257" d="M177 106l-74 -189h-59l66 189h67z" />
<glyph unicode="-" horiz-adv-x="262" d="M25 313h212v-67h-212v67z" />
<glyph unicode="." horiz-adv-x="257" d="M163 106v-106h-68v106h68z" />
<glyph unicode="/" horiz-adv-x="278" d="M-49 -68l306 812h70l-306 -812h-70z" />
<glyph unicode="0" d="M43 229v282q0 109 61.5 175.5t155.5 66.5t156 -66t62 -176v-282q0 -110 -62 -176t-156 -66t-155.5 66.5t-61.5 175.5zM114 508v-276q0 -90 45 -133.5t101 -43.5t101 43t45 134v276q0 91 -45 134t-101 43t-101 -43.5t-45 -133.5z" />
<glyph unicode="1" d="M234 0v673h-121v67h192v-740h-71z" />
<glyph unicode="2" d="M41 0v72q54 58 205 230q70 78 100.5 127t30.5 109q0 68 -34.5 104.5t-90.5 36.5q-58 0 -94 -41t-40 -129h-73q1 121 65 186q57 58 146 58q88 0 142.5 -60.5t54.5 -154.5q0 -106 -101 -226q-77 -93 -215 -243h318v-69h-414z" />
<glyph unicode="3" d="M154 564h-75q3 91 55 140t134 49q81 0 130.5 -49.5t49.5 -132.5q0 -119 -112 -153q52 -16 85.5 -51t45 -72.5t11.5 -82.5q0 -100 -57.5 -162.5t-158.5 -62.5q-59 0 -109 28t-78 78q-30 52 -33 127h75q1 -80 43 -122t103 -42q65 0 101.5 43t36.5 119q0 71 -45.5 116.5 t-122.5 45.5h-30v66h28q69 0 105 32t36 88q0 53 -28 85.5t-80 32.5q-54 0 -81 -32.5t-29 -87.5z" />
<glyph unicode="4" d="M331 0v145h-293v66l287 529h77v-528h63v-67h-63v-145h-71zM107 212h224v423z" />
<glyph unicode="5" d="M121 740h321v-64h-256l-30 -228q42 56 126 56q86 0 141 -71.5t55 -180.5q0 -120 -57 -192.5t-158 -72.5q-88 0 -147.5 59.5t-68.5 170.5h74q7 -73 47 -117t95 -44q67 0 102.5 51.5t35.5 138.5t-38 138t-96 51q-75 0 -120 -78l-68 5z" />
<glyph unicode="6" d="M311 740h81l-158 -228q-7 -10 -22.5 -29.5t-22.5 -29.5q39 30 89 30q83 0 141 -65.5t58 -173.5q0 -114 -59.5 -185.5t-157.5 -71.5q-97 0 -156 70q-61 70 -61 183q0 68 21.5 121t60.5 109zM121 229v-1q0 -81 40 -128.5t100 -47.5q64 0 101.5 50.5t37.5 137.5 q0 80 -37 129t-102 49q-64 0 -102 -50t-38 -139z" />
<glyph unicode="7" d="M65 740h394v-63l-271 -677h-78l271 673h-316v67z" />
<glyph unicode="8" d="M75 567v1q0 78 53.5 131.5t131.5 53.5q79 0 132 -53.5t53 -132.5q0 -49 -25 -90.5t-66 -62.5q57 -20 91.5 -74.5t35.5 -124.5q-1 -100 -64 -164t-157 -64t-157 64t-64 164q1 71 36.5 124t90.5 76q-42 20 -66.5 62t-24.5 90zM151 559v-1q0 -50 32.5 -85t78.5 -35 q45 0 76.5 35t31.5 86q0 53 -32.5 89t-79.5 36q-44 0 -75.5 -36t-31.5 -89zM116 215v-1q0 -65 42 -111.5t102 -46.5q61 0 102.5 46.5t41.5 112.5q0 65 -42 111t-102 46t-102 -46t-42 -111z" />
<glyph unicode="9" d="M210 0h-82l159 228q7 11 23 30.5t22 28.5q-40 -30 -89 -30q-83 0 -141.5 65.5t-58.5 173.5q0 114 60 185.5t158 71.5t155 -70q61 -70 61 -183q0 -68 -21.5 -121t-59.5 -109zM399 511v1q0 81 -40 128.5t-100 47.5q-64 0 -101.5 -50.5t-37.5 -137.5q0 -80 37 -129t102 -49 q64 0 102 50t38 139z" />
<glyph unicode=":" horiz-adv-x="257" d="M163 515v-106h-68v106h68zM163 106v-106h-68v106h68z" />
<glyph unicode=";" horiz-adv-x="257" d="M173 515v-106h-69v106h69zM177 106l-74 -189h-59l66 189h67z" />
<glyph unicode="&#x3c;" horiz-adv-x="537" d="M33 284l471 223v-69l-390 -187l390 -185v-69l-471 222v65z" />
<glyph unicode="=" horiz-adv-x="537" d="M33 384h471v-62h-471v62zM33 181h471v-63h-471v63z" />
<glyph unicode="&#x3e;" horiz-adv-x="537" d="M33 66l390 185l-390 187v69l471 -223v-65l-471 -222v69z" />
<glyph unicode="?" horiz-adv-x="477" d="M270 179h-73v20.5t0.5 21t1 20t2 21.5t3.5 19.5t5.5 21.5t8 20.5t10.5 21.5t14.5 20.5t18.5 22.5q12 14 34 38t33.5 38t22 36.5t11.5 46.5q0 57 -34.5 95.5t-89.5 38.5q-48 0 -84 -29t-42 -91q-1 -9 -1 -28h-75q0 20 1 30q8 95 66.5 142.5t135.5 47.5q82 0 140.5 -59 t58.5 -151q0 -38 -17 -74t-33.5 -55.5t-48.5 -52.5q-26 -27 -41 -48t-20.5 -46t-6.5 -38.5t-1 -49.5zM270 107v-107h-73v107h73z" />
<glyph unicode="@" horiz-adv-x="757" d="M633 171h54q-44 -90 -124.5 -137t-167.5 -47q-152 0 -252.5 108.5t-100.5 270.5q0 165 101.5 276t252.5 111q59 0 115.5 -21t102 -59.5t73.5 -99t28 -132.5q0 -74 -26 -132.5t-63.5 -90t-72.5 -47t-61 -15.5q-14 0 -26.5 4t-26 20t-14.5 42q-44 -64 -110 -64 q-42 0 -79 37.5t-37 112.5q0 101 57 182.5t135 81.5q70 0 104 -73l15 59h51l-70 -262l-9 -45q-1 -39 36 -39q50 0 99 58.5t49 158.5q0 130 -79.5 201.5t-190.5 71.5q-125 0 -211 -94.5t-86 -241.5t84.5 -237.5t211.5 -90.5q73 0 136.5 32t101.5 101zM258 314v-1 q0 -49 20.5 -72t49.5 -23q48 0 77 34t41 76q27 81 27 100q-1 43 -25 65t-53 22q-50 0 -93.5 -60.5t-43.5 -140.5z" />
<glyph unicode="A" horiz-adv-x="495" d="M136 219l-61 -219h-77l211 740h74l214 -740h-76l-63 219h-222zM338 287l-91 356l-91 -356h182z" />
<glyph unicode="B" horiz-adv-x="498" d="M67 0v740h154q95 0 138 -37q64 -44 64 -149q0 -122 -103 -158q51 -15 83.5 -49t43.5 -69t11 -74q0 -116 -82 -168q-47 -36 -129 -36h-180zM142 673v-253h82q50 0 76 19q46 34 46 109q0 74 -45 105q-27 20 -93 20h-66zM142 353v-286h92q60 0 89 19q58 30 59 121 q0 42 -16.5 75t-42.5 50q-31 21 -98 21h-83z" />
<glyph unicode="C" horiz-adv-x="554" d="M451 241h74q0 -104 -60.5 -179t-170.5 -75q-120 0 -188.5 99t-68.5 284q0 179 66 281t191 102q111 0 171.5 -78.5t59.5 -191.5h-74q-2 84 -38.5 142t-114.5 58q-94 0 -139 -84t-45 -236t50.5 -229t133.5 -77q78 0 113.5 53t39.5 131z" />
<glyph unicode="D" horiz-adv-x="582" d="M67 0v740h170q169 0 242 -107q65 -95 65 -263q0 -103 -23.5 -177t-67 -115t-96 -59.5t-118.5 -18.5h-172zM142 671v-602h91q126 0 180.5 76t54.5 225q0 155 -52 226q-53 75 -185 75h-89z" />
<glyph unicode="E" horiz-adv-x="475" d="M70 0v740h347v-69h-272v-258h272v-69h-272v-275h272v-69h-347z" />
<glyph unicode="F" horiz-adv-x="423" d="M66 0v740h319v-69h-244v-258h244v-68h-244v-345h-75z" />
<glyph unicode="G" horiz-adv-x="612" d="M559 495h-75q-2 62 -33 114q-46 76 -135 76q-93 0 -147.5 -81.5t-54.5 -233.5q0 -158 55.5 -236.5t146.5 -78.5q101 0 145 87q32 64 32 168h-208v68h285q0 -73 -2 -109q-2 -51 -16.5 -98t-42.5 -89.5t-78 -68.5t-115 -26q-137 0 -208 105t-71 278q0 174 75.5 278.5 t203.5 104.5q111 0 174 -73.5t69 -184.5z" />
<glyph unicode="H" horiz-adv-x="548" d="M142 0h-75v740h75v-327h263v327h76v-740h-76v344h-263v-344z" />
<glyph unicode="I" horiz-adv-x="210" d="M67 0v740h75v-740h-75z" />
<glyph unicode="J" horiz-adv-x="427" d="M360 740v-536q0 -68 -16 -112q-21 -47 -59 -73q-42 -32 -101 -32q-70 0 -119 41.5t-58 117.5q-2 18 -2 29h73l3 -15q19 -105 106 -105q59 3 84 62q14 33 14 97v526h75z" />
<glyph unicode="K" horiz-adv-x="464" d="M67 0v740h75v-358l232 358h85l-243 -366l262 -374h-89l-247 357v-357h-75z" />
<glyph unicode="L" horiz-adv-x="397" d="M70 0v740h75v-671h236v-69h-311z" />
<glyph unicode="M" horiz-adv-x="707" d="M137 0h-68v740h116l174 -631l162 631h117v-740h-68v671l-175 -671h-70l-188 671v-671z" />
<glyph unicode="N" horiz-adv-x="596" d="M159 740l300 -617v617h68v-740h-84l-306 632v-632h-68v740h90z" />
<glyph unicode="O" horiz-adv-x="613" d="M37 370v1q0 169 70 275.5t199 106.5t199 -106.5t70 -276.5q0 -74 -15 -140.5t-46 -122t-84.5 -88t-123.5 -32.5q-129 0 -199 106.5t-70 276.5zM114 370v-1q0 -150 51 -232t141 -82t141.5 82t51.5 233t-51.5 233t-141.5 82t-141 -82t-51 -233z" />
<glyph unicode="P" horiz-adv-x="489" d="M70 740h140q122 0 185 -51q33 -27 52.5 -72.5t19.5 -97.5q0 -53 -19.5 -98.5t-52.5 -72.5q-63 -51 -185 -51h-65v-297h-75v740zM145 671v-305h65q53 0 82 7t54 28q45 35 45 117q0 38 -12.5 70t-33.5 49q-23 20 -53 27t-82 7h-65z" />
<glyph unicode="Q" horiz-adv-x="617" d="M587 57v-69q-7 -1 -22 -1q-68 0 -112 51q-60 -51 -147 -51q-129 0 -199 106.5t-70 276.5t70 276.5t199 106.5t199 -106.5t70 -276.5q0 -181 -76 -279q33 -41 88 -34zM306 685h-1q-89 0 -140 -82.5t-51 -232.5q0 -80 18 -137q58 39 121 39q55 0 105 -36q45 -34 87 -89 q21 27 37.5 86.5t16.5 136.5q0 150 -51.5 232.5t-141.5 82.5zM306 55h1q61 0 104 40q-35 48 -70 76q-46 36 -100 36q-53 0 -96 -35q53 -117 161 -117z" />
<glyph unicode="R" horiz-adv-x="502" d="M67 0v740h141q134 0 183 -44q77 -63 77 -179q0 -81 -33 -134q-46 -73 -128 -85l148 -298h-84l-165 344q17 0 26 1q75 1 116 40q43 42 43 125q0 94 -56 136q-33 25 -129 25h-64v-671h-75z" />
<glyph unicode="S" horiz-adv-x="494" d="M36 204h73q6 -79 45 -115t88 -36q61 0 100.5 38.5t39.5 105.5q0 37 -11.5 63.5t-41 44.5t-45 25t-56.5 20q-7 3 -11 4q-34 12 -54.5 21.5t-51.5 31.5t-47 57t-16 82q-1 96 53 152t142 56q174 0 198 -188h-72q-16 124 -124 124q-56 0 -88.5 -36t-32.5 -95q0 -28 9.5 -50 t21.5 -35.5t39 -27t44 -20t55 -18.5q24 -8 40 -15t42 -24t42 -37.5t28.5 -54.5t12.5 -76q0 -96 -61 -155t-153 -59q-91 0 -148 55.5t-60 161.5z" />
<glyph unicode="T" horiz-adv-x="412" d="M169 0v671h-150v69h375v-69h-150v-671h-75z" />
<glyph unicode="U" horiz-adv-x="553" d="M64 740h75v-540q0 -75 37 -111q33 -33 100 -33t101 33q37 36 37 111v540h75v-545q0 -100 -52 -152q-54 -56 -160 -56t-162 56q-51 52 -51 152v545z" />
<glyph unicode="V" horiz-adv-x="504" d="M216 0l-214 740h76l175 -636l176 636h73l-214 -740h-72z" />
<glyph unicode="W" horiz-adv-x="783" d="M181 0l-178 740h74l145 -627l133 627h76l133 -627l143 627h73l-176 -740h-78l-135 637l-132 -637h-78z" />
<glyph unicode="X" horiz-adv-x="462" d="M4 0l187 394l-164 346h78l126 -281l126 281h79l-165 -346l186 -394h-79l-147 326l-148 -326h-79z" />
<glyph unicode="Y" horiz-adv-x="449" d="M187 0v269l-190 471h78l150 -399l149 399h78l-190 -471v-269h-75z" />
<glyph unicode="Z" horiz-adv-x="486" d="M445 677l-324 -608h336v-69h-423v60l323 611h-323v69h411v-63z" />
<glyph unicode="[" horiz-adv-x="332" d="M287 -179v-57h-203v976h203v-57h-140v-862h140z" />
<glyph unicode="\" horiz-adv-x="278" d="M259 -68l-306 812h66l306 -812h-66z" />
<glyph unicode="]" horiz-adv-x="332" d="M45 -236v57h140v862h-140v57h203v-976h-203z" />
<glyph unicode="^" horiz-adv-x="537" d="M66 381l169 359h66l170 -359h-67l-136 294l-136 -294h-66z" />
<glyph unicode="_" horiz-adv-x="500" d="M500 -125h-500v50h500v-50z" />
<glyph unicode="`" horiz-adv-x="418" d="M97 769l221 -126l-26 -47l-223 119z" />
<glyph unicode="a" horiz-adv-x="490" d="M424 544v-544h-62q0 78 1 104q-18 -56 -55.5 -86.5t-88.5 -30.5q-81 0 -131.5 78.5t-50.5 205.5q0 128 49 207t133 79q105 0 144 -118q-1 33 -1 105h62zM104 272v-1q0 -96 33.5 -157t93.5 -61q59 0 95 60q31 51 31 159q0 109 -31 159q-36 60 -95 60q-60 0 -93.5 -61 t-33.5 -158z" />
<glyph unicode="b" horiz-adv-x="490" d="M66 0v740h67v-196q0 -78 -2 -104q15 54 51.5 85.5t87.5 31.5q85 0 134 -78.5t49 -205.5q0 -129 -50.5 -207.5t-132.5 -78.5q-102 0 -143 118q1 -33 1 -105h-62zM386 272v1q0 93 -32.5 155.5t-93.5 62.5q-65 0 -96 -63.5t-31 -155.5t31 -155.5t96 -63.5q61 0 93.5 62.5 t32.5 156.5z" />
<glyph unicode="c" horiz-adv-x="445" d="M355 185h69q-9 -88 -55.5 -143t-124.5 -55q-103 0 -156.5 82t-53.5 202q0 132 57 209t150 77q82 0 129 -56t51 -145h-68q-14 138 -114 138q-66 0 -99 -58q-35 -63 -35 -164q0 -107 35 -164.5t100 -57.5q49 0 78 36t37 99z" />
<glyph unicode="d" horiz-adv-x="490" d="M424 740v-740h-62q0 80 1 108q-14 -56 -53 -88.5t-91 -32.5q-81 0 -131.5 78.5t-50.5 205.5q0 128 49 207t133 79q100 0 140 -115q-2 32 -2 102v196h67zM104 273v-1q0 -96 33.5 -157t93.5 -61q59 0 95 60q31 51 31 159t-31 159q-36 59 -95 59q-60 0 -93.5 -61t-33.5 -157 z" />
<glyph unicode="e" horiz-adv-x="478" d="M441 252h-332q0 -89 36 -145.5t102 -56.5q48 0 79.5 29.5t42.5 78.5h66q-14 -81 -68 -128q-51 -43 -120 -43q-54 0 -95.5 24.5t-65 65.5t-35.5 90t-12 104q0 128 55.5 207t150.5 79t146 -77q52 -77 50 -228zM109 311h264q-2 86 -36.5 137.5t-94.5 51.5q-58 0 -94.5 -53.5 t-38.5 -135.5z" />
<glyph unicode="f" horiz-adv-x="250" d="M80 0v481h-61v63h61v41q0 46 14.5 80t32.5 50t44 25.5t40.5 11t30.5 1.5v-59q-95 -6 -95 -115v-35h95v-63h-95v-481h-67z" />
<glyph unicode="g" horiz-adv-x="490" d="M424 544v-534q0 -109 -46 -163q-51 -60 -146 -60q-27 0 -55.5 8.5t-57 27t-48 53.5t-22.5 82h68q6 -49 31 -76q33 -33 87 -33q123 0 123 156q0 61 1 97q-15 -54 -51.5 -84.5t-88.5 -30.5q-86 0 -134 78t-48 206q0 129 48 207.5t134 78.5q103 0 147 -118q-1 33 -1 105h59z M104 272v-1q0 -96 33.5 -157t93.5 -61q59 0 95 60q31 51 31 159q0 109 -31 159q-36 60 -95 60q-60 0 -93.5 -61t-33.5 -158z" />
<glyph unicode="h" horiz-adv-x="497" d="M66 0v740h67v-192q0 -57 -2 -90q33 99 146 99q76 0 117 -49q40 -45 40 -150v-358h-67v338q0 82 -25 118q-24 35 -79 35q-62 0 -96 -44t-34 -138v-309h-67z" />
<glyph unicode="i" horiz-adv-x="215" d="M74 642v98h67v-98h-67zM74 0v544h67v-544h-67z" />
<glyph unicode="j" horiz-adv-x="212" d="M71 641v99h67v-99h-67zM138 544v-551q0 -178 -114 -196q-16 -2 -24 -2v65q2 0 5 0.5t4 1.5q25 6 39 25t18.5 45.5t4.5 68.5v543h67z" />
<glyph unicode="k" horiz-adv-x="394" d="M63 0v740h67v-429l175 233h76l-188 -242l201 -302h-75l-189 281v-281h-67z" />
<glyph unicode="l" horiz-adv-x="215" d="M74 0v740h67v-740h-67z" />
<glyph unicode="m" horiz-adv-x="755" d="M68 0v544h64q0 -57 -2 -89q34 102 138 102q58 0 95 -37q24 -25 30 -65q14 43 45 69q45 33 100 33q86 0 127 -70q25 -41 25 -149v-338h-67v333q0 70 -11 101q-9 27 -31.5 42t-51.5 15q-56 0 -88 -44q-29 -42 -29 -119v-328h-67v330q0 70 -11 104q-8 27 -30.5 42t-51.5 15 q-55 0 -88 -42q-29 -41 -29 -123v-326h-67z" />
<glyph unicode="n" horiz-adv-x="497" d="M66 0v544h60q0 -59 -2 -93q39 106 154 106q73 0 114.5 -45.5t41.5 -140.5v-371h-67v350q0 141 -104 141q-61 0 -95.5 -43t-34.5 -126v-322h-67z" />
<glyph unicode="o" horiz-adv-x="493" d="M37 272v1q0 124 53 204t157 80q103 0 156 -80t53 -205t-53 -205t-156 -80q-104 0 -157 80t-53 205zM107 272v-1q0 -221 141 -221q138 0 138 222t-140 222q-139 0 -139 -222z" />
<glyph unicode="p" horiz-adv-x="490" d="M66 -201v745h62q0 -71 -1 -104q40 117 143 117q82 0 132.5 -78.5t50.5 -207.5q0 -127 -49 -205.5t-134 -78.5q-48 0 -85 30t-54 82q2 -24 2 -99v-201h-67zM386 272v1q0 96 -33 157t-94 61q-59 0 -93 -60q-33 -51 -33 -159q0 -107 33 -159q34 -60 93 -60q61 0 94 61 t33 158z" />
<glyph unicode="q" horiz-adv-x="490" d="M424 544v-745h-67v201q0 76 2 102q-17 -55 -54 -85t-86 -30q-84 0 -133 78.5t-49 205.5q0 129 50.5 207.5t131.5 78.5q108 0 142 -117q-1 33 -1 104h64zM104 272v-1q0 -96 33.5 -157t93.5 -61q59 0 95 60q31 51 31 159q0 109 -31 159q-36 60 -95 60q-60 0 -93.5 -61 t-33.5 -158z" />
<glyph unicode="r" horiz-adv-x="277" d="M66 0v544h62q0 -81 -2 -114q31 122 145 127v-78q-11 7 -25 7q-41 0 -77 -50t-36 -144v-292h-67z" />
<glyph unicode="s" horiz-adv-x="403" d="M351 403h-66q0 94 -88 94q-35 0 -57 -22.5t-22 -58.5q0 -42 29 -63.5t88 -39.5q130 -39 130 -164q0 -71 -46 -116.5t-116 -45.5q-76 0 -121 44.5t-49 128.5h66q1 -54 29 -82.5t75 -28.5q43 0 67.5 26.5t24.5 68.5q0 46 -29 71t-90 44q-61 20 -94.5 54t-33.5 101 q0 65 42.5 104t109.5 39q70 0 109.5 -39.5t41.5 -114.5z" />
<glyph unicode="t" horiz-adv-x="250" d="M92 0v481h-76v63h76v172h67v-172h75v-63h-75v-481h-67z" />
<glyph unicode="u" horiz-adv-x="497" d="M431 544v-544h-62q0 61 2 95q-19 -55 -60 -81.5t-92 -26.5q-73 0 -114.5 45.5t-41.5 140.5v371h67v-350q0 -141 104 -141q61 0 95.5 43t34.5 126v322h67z" />
<glyph unicode="v" horiz-adv-x="391" d="M390 544l-158 -544h-67l-164 544h68l129 -454l125 454h67z" />
<glyph unicode="w" horiz-adv-x="622" d="M149 0l-146 544h69l111 -447l98 399h61l98 -399l110 447h68l-146 -544h-66l-94 397l-96 -397h-67z" />
<glyph unicode="x" horiz-adv-x="383" d="M5 0l146 277l-140 267h76l104 -214l105 214h75l-141 -267l148 -277h-77l-110 223l-110 -223h-76z" />
<glyph unicode="y" horiz-adv-x="399" d="M93 -201l70 214l-157 531h70l121 -433l128 433h69l-234 -745h-67z" />
<glyph unicode="z" horiz-adv-x="397" d="M20 0v62l261 419h-244v63h324v-64l-260 -417h269v-63h-350z" />
<glyph unicode="{" horiz-adv-x="332" d="M276 740v-55h-44q-36 0 -48 -19.5t-12 -75.5v-188q-1 -54 -26.5 -97.5t-56.5 -60.5q36 -12 59 -50.5t24 -101.5v-188q0 -59 12 -77.5t48 -18.5h44v-55h-67q-54 0 -77.5 32t-23.5 97v194q0 115 -71 141v55q32 5 51.5 44.5t19.5 99.5v197q0 64 23.5 95.5t77.5 31.5h67z" />
<glyph unicode="|" horiz-adv-x="397" d="M167 750h64v-1000h-64v1000z" />
<glyph unicode="}" horiz-adv-x="332" d="M56 685v55h67q54 0 77.5 -32t23.5 -97v-194q0 -114 72 -141v-54q-32 -5 -52 -45t-20 -100v-196q0 -64 -23.5 -96t-77.5 -32h-67v55h44q36 0 48.5 19.5t12.5 75.5v189q0 53 25.5 96.5t56.5 60.5q-36 12 -59 51t-23 102v187q0 59 -12.5 77.5t-48.5 18.5h-44z" />
<glyph unicode="~" horiz-adv-x="537" d="M450 311l25 -50q-41 -75 -101 -75q-31 0 -103 33q-70 34 -96 34q-53 2 -88 -61l-25 50q42 78 113 75q34 0 106 -34q72 -33 93 -33q39 0 76 61z" />
<glyph unicode="&#xa1;" horiz-adv-x="248" d="M87 437v107h74v-107h-74zM87 -198v562h74v-562h-74z" />
<glyph unicode="&#xa2;" d="M298 -13h-61v95q-51 3 -88 31.5t-55.5 72t-27 87.5t-8.5 89q0 79 16.5 138t57.5 100t105 49v95h61v-95q147 -13 158 -208h-71q-12 144 -117 144q-135 0 -135 -219t137 -219q55 0 86 40.5t33 100.5h71q-2 -86 -46.5 -144.5t-115.5 -61.5v-95z" />
<glyph unicode="&#xa3;" d="M360 414v-66h-166q47 -61 58 -88q10 -27 10 -57q0 -65 -41 -131h60q68 0 105 35q35 34 35 101q0 22 -4 46h74q5 -40 5 -55q0 -96 -55 -149q-53 -50 -145 -50h-253v72h102q42 62 42 129q0 33 -16.5 64t-54.5 83h-97v66h65q-30 48 -30 124q0 91 58.5 153t150.5 62 q80 0 137 -53.5t69 -145.5h-75q-12 56 -50 90.5t-87 34.5q-56 -1 -92 -41.5t-38 -101.5q0 -74 35 -122h198z" />
<glyph unicode="&#xa4;" d="M469 98l-80 80q-54 -42 -129 -42q-76 0 -128 42l-81 -80l-44 44l81 82q-46 51 -46 129t45 128l-82 82l45 44l81 -81q52 44 129 44q80 0 129 -44l81 81l46 -44l-81 -82q43 -50 43 -128q0 -81 -45 -129l81 -82zM108 353v-1q0 -62 45.5 -106.5t106.5 -44.5q62 0 107.5 44.5 t45.5 107.5t-45 107.5t-108 44.5q-61 0 -106.5 -44.5t-45.5 -107.5z" />
<glyph unicode="&#xa5;" d="M474 444v-66h-164l-14 -28v-58h178v-66h-178v-226h-71v226h-178v66h178v58l-14 28h-164v66h133l-148 296h79l150 -324l148 324h79l-147 -296h133z" />
<glyph unicode="&#xa6;" horiz-adv-x="397" d="M167 675h64v-350h-64v350zM167 175h64v-350h-64v350z" />
<glyph unicode="&#xa7;" horiz-adv-x="500" d="M396 604h-51q-9 97 -86 97q-42 0 -64 -21.5t-22 -57.5q0 -66 63 -110l114 -88q80 -61 80 -135q0 -41 -22 -78t-60 -57q50 -48 50 -125q0 -59 -39 -100.5t-104 -41.5q-70 0 -109.5 45.5t-43.5 116.5h52q3 -45 26.5 -77.5t72.5 -32.5q38 0 60.5 25t23.5 65q3 68 -81 129 l-112 86q-74 50 -74 134q0 43 24 78t65 52q-46 49 -46 112q0 57 38.5 95t107.5 38q127 0 137 -149zM370 282v1q0 34 -18.5 57.5t-57.5 52.5l-108 82q-25 -11 -41 -37t-16 -54q0 -63 66 -107l121 -90q54 33 54 95z" />
<glyph unicode="&#xa8;" horiz-adv-x="260" d="M88 731v-114h-65v114h65zM237 731v-114h-65v114h65z" />
<glyph unicode="&#xa9;" horiz-adv-x="800" d="M401 752h1q160 0 270 -111.5t110 -270.5q0 -161 -111.5 -271.5t-270.5 -110.5q-160 0 -271 110.5t-111 271.5q0 158 110 270t273 112zM401 707h-1q-142 0 -238 -98.5t-96 -238.5q0 -141 97 -239t237 -98q139 0 236 97.5t97 239.5q0 139 -95.5 238t-236.5 99zM596 442h-51 q-10 52 -48.5 76.5t-87.5 24.5q-67 0 -110 -46t-43 -128q0 -87 45 -130.5t107 -43.5q18 0 37 4.5t43 16t41 38.5t21 67h53q-8 -82 -63.5 -129.5t-131.5 -47.5q-88 0 -149.5 60t-61.5 164q0 99 59 162.5t154 63.5q73 0 124.5 -41.5t61.5 -110.5z" />
<glyph unicode="&#xaa;" horiz-adv-x="300" d="M271 746v-327h-49q0 47 1 67q-26 -74 -94 -74q-53 0 -86 47t-33 123q0 77 32 124t87 47q69 0 94 -75q-1 25 -1 68h49zM62 582v-1q0 -50 19 -85.5t57 -35.5q29 0 47 21.5t24 55.5q3 25 3 48q0 25 -4 45q-6 33 -24.5 53.5t-48.5 20.5q-35 0 -54 -35t-19 -87z" />
<glyph unicode="&#xab;" horiz-adv-x="385" d="M38 279l108 190h65l-108 -190l108 -188h-65zM175 279l108 190h65l-108 -190l108 -188h-65z" />
<glyph unicode="&#xac;" horiz-adv-x="537" d="M33 384h471v-266h-63v204h-408v62z" />
<glyph unicode="&#xad;" horiz-adv-x="262" d="M25 313h212v-67h-212v67z" />
<glyph unicode="&#xae;" horiz-adv-x="800" d="M401 752h1q160 0 270 -111.5t110 -270.5q0 -161 -111.5 -271.5t-270.5 -110.5q-160 0 -271 110.5t-111 271.5q0 158 110 270t273 112zM401 707h-1q-142 0 -238 -98.5t-96 -238.5q0 -141 97 -239t237 -98q139 0 236 97.5t97 239.5q0 139 -95.5 238t-236.5 99zM236 588h183 q23 0 45 -4t49 -15t43.5 -36.5t16.5 -63.5q0 -75 -80 -107q37 -11 53 -34.5t18 -65.5q5 -68 7 -82.5t8 -27.5h-57q-7 13 -12 100q-2 22 -5 34.5t-13.5 26.5t-33.5 20t-60 6h-105v-187h-57v436zM409 545h-116v-164h107l10 1q9 0 13 0.5t14.5 2t16 3t15 5t15 8t12.5 10.5 t11 14t6.5 18.5t2.5 22.5q0 79 -107 79z" />
<glyph unicode="&#xaf;" horiz-adv-x="418" d="M383 698v-51h-348v51h348z" />
<glyph unicode="&#xb0;" horiz-adv-x="400" d="M345 580v-1q0 -60 -42 -102t-103 -42t-103 42t-42 103t42 103t103 42t103 -42t42 -103zM96 580v-1q0 -44 30 -74.5t74 -30.5t74 31t30 75t-30 75t-74 31t-74 -31t-30 -75z" />
<glyph unicode="&#xb1;" horiz-adv-x="537" d="M237 339v167h63v-167h204v-63h-204v-167h-63v167h-204v63h204zM33 0v63h471v-63h-471z" />
<glyph unicode="&#xb2;" horiz-adv-x="344" d="M301 352v-52h-270v49q71 72 163 170q46 51 46 95q0 35 -18 59t-55 24q-33 0 -54.5 -25.5t-21.5 -72.5h-57q0 52 21 88q35 61 114 61q59 0 95 -37t36 -99q0 -57 -56 -119q-24 -26 -74.5 -77.5t-61.5 -63.5h193z" />
<glyph unicode="&#xb3;" horiz-adv-x="344" d="M27 435h56q1 -47 26 -70.5t58 -23.5q39 0 60.5 24.5t21.5 63.5q0 38 -23.5 66t-68.5 28h-29v45h27q22 0 37 7t21.5 18.5t9 21t2.5 19.5q0 27 -15.5 45.5t-42.5 19.5q-28 1 -44.5 -17.5t-17.5 -49.5h-56q1 57 36 86.5t84 29.5t82 -30t33 -79q0 -63 -56 -90 q36 -11 57.5 -43.5t21.5 -76.5q0 -59 -38.5 -98t-99.5 -39q-83 0 -119 60q-23 34 -23 83z" />
<glyph unicode="&#xb4;" horiz-adv-x="418" d="M101 643l221 126l27 -54l-223 -119z" />
<glyph unicode="&#xb5;" horiz-adv-x="500" d="M66 -181v725h67v-338q0 -84 26 -120q24 -33 76 -33q63 0 98 45q34 44 34 141v305h67v-544h-62q0 28 2 98q-16 -53 -56.5 -82t-93.5 -29q-32 0 -58 13.5t-35 40.5q2 -58 2 -71v-151h-67z" />
<glyph unicode="&#xb6;" horiz-adv-x="544" d="M243 -103v460q-102 0 -163 47.5t-61 142.5q0 96 62.5 144.5t165.5 48.5h281v-51h-55v-792h-65v791h-100v-791h-65z" />
<glyph unicode="&#xb7;" horiz-adv-x="257" d="M167 310v-111h-77v111h77z" />
<glyph unicode="&#xb8;" horiz-adv-x="216" d="M128 0l-32 -60q1 0 8.5 2t12.5 2q35 0 57 -21t22 -52q0 -35 -26 -59.5t-64 -24.5q-68 0 -90 49l24 18q14 -29 60 -29q19 0 32.5 12t14.5 32q-1 18 -13.5 30t-30.5 12q-24 0 -43 -19l-22 10l52 98h38z" />
<glyph unicode="&#xb9;" horiz-adv-x="281" d="M178 740v-440h-56v391h-74v49h130z" />
<glyph unicode="&#xba;" horiz-adv-x="300" d="M13 582v1q0 75 34.5 122.5t102.5 47.5t102.5 -48t34.5 -123t-34.5 -123t-102.5 -48t-102.5 48t-34.5 123zM66 582v-1q0 -124 84 -124t84 125q0 65 -20.5 95.5t-64.5 29.5q-43 1 -63 -29.5t-20 -95.5z" />
<glyph unicode="&#xbb;" horiz-adv-x="385" d="M239 468l108 -190l-108 -187h-65l109 187l-109 190h65zM102 468l108 -190l-108 -187h-65l108 187l-108 190h65z" />
<glyph unicode="&#xbc;" horiz-adv-x="718" d="M626 440v-307h43v-49h-43v-84h-54v84h-194v45l190 311h58zM572 362l-136 -229h136v229zM192 740v-440h-57v391h-73v49h130zM538 744l-344 -748h-60l343 748h61z" />
<glyph unicode="&#xbd;" horiz-adv-x="749" d="M192 740v-440h-57v391h-73v49h130zM528 744l-344 -748h-60l343 748h61zM696 53v-53h-269v49q111 115 162 171q27 29 37 49.5t10 45.5q0 34 -18 58t-55 24q-33 0 -54.5 -25.5t-21.5 -72.5h-57q0 52 21 89q36 60 114 60q59 0 95 -37t36 -99q0 -57 -56 -118 q-24 -26 -74.5 -77.5t-61.5 -63.5h192z" />
<glyph unicode="&#xbe;" horiz-adv-x="781" d="M690 440v-307h42v-49h-42v-84h-55v84h-194v45l190 311h59zM635 362l-136 -229h136v229zM33 435h56q1 -47 26 -70.5t58 -23.5q39 0 60.5 24.5t21.5 63.5q0 38 -23.5 66t-68.5 28h-29v45h27q22 0 37 7t21.5 18.5t9 21t2.5 19.5q0 27 -15.5 45.5t-42.5 19.5 q-28 1 -44.5 -17.5t-17.5 -49.5h-56q1 57 36 86.5t84 29.5t82 -30t33 -79q0 -63 -56 -90q36 -11 57.5 -43.5t21.5 -76.5q0 -59 -38.5 -98t-99.5 -39q-83 0 -119 60q-23 34 -23 83zM607 744l-344 -748h-60l343 748h61z" />
<glyph unicode="&#xbf;" horiz-adv-x="477" d="M207 437v107h73v-107h-73zM207 365h73v-20.5t-0.5 -21.5t-1 -20t-1.5 -21t-3.5 -19.5t-5.5 -21.5t-8 -20.5t-11 -21.5t-14 -20.5t-18 -22.5q-11 -14 -34 -38t-34.5 -38t-22 -36.5t-10.5 -46.5q0 -57 34.5 -95.5t88.5 -38.5q49 0 84.5 29t41.5 91q2 18 2 28h75 q0 -10 -2 -30q-8 -95 -66.5 -142t-135.5 -47q-82 0 -140.5 59t-58.5 150q0 38 17 74t34 56t49 52q21 21 34.5 41.5t20.5 32.5t10 36t3 31.5v40.5z" />
<glyph unicode="&#xc0;" horiz-adv-x="495" d="M136 219l-61 -219h-77l211 740h74l214 -740h-76l-63 219h-222zM338 287l-91 356l-91 -356h182zM132 947l221 -126l-25 -47l-223 119z" />
<glyph unicode="&#xc1;" horiz-adv-x="495" d="M136 219l-61 -219h-77l211 740h74l214 -740h-76l-63 219h-222zM338 287l-91 356l-91 -356h182zM143 821l221 126l27 -54l-223 -119z" />
<glyph unicode="&#xc2;" horiz-adv-x="495" d="M136 219l-61 -219h-77l211 740h74l214 -740h-76l-63 219h-222zM338 287l-91 356l-91 -356h182zM280 918l140 -123h-70l-102 85l-103 -85h-70l140 123h65z" />
<glyph unicode="&#xc3;" horiz-adv-x="495" d="M136 219l-61 -219h-77l211 740h74l214 -740h-76l-63 219h-222zM338 287l-91 356l-91 -356h182zM398 889l29 -41q-38 -40 -93 -40q-49 0 -87 13q-47 15 -78 15q-44 0 -73 -31l-31 41q13 17 39.5 30t52.5 13q48 0 92 -13q40 -15 78 -15q40 0 71 28z" />
<glyph unicode="&#xc4;" horiz-adv-x="495" d="M136 219l-61 -219h-77l211 740h74l214 -740h-76l-63 219h-222zM338 287l-91 356l-91 -356h182zM206 909v-115h-65v115h65zM354 909v-115h-64v115h64z" />
<glyph unicode="&#xc5;" horiz-adv-x="495" d="M136 219l-61 -219h-77l211 740h74l214 -740h-76l-63 219h-222zM338 287l-91 356l-91 -356h182zM247 964h1q41 0 70 -29t29 -70t-29 -70.5t-71 -29.5q-41 0 -70 29.5t-29 70.5t29 70t70 29zM247 924h-1q-24 0 -40.5 -17t-16.5 -42q0 -24 16.5 -41t41.5 -17t42 17t17 41 q0 25 -17 42t-42 17z" />
<glyph unicode="&#xc6;" horiz-adv-x="820" d="M-8 0l367 740h398v-69h-285v-258h285v-69h-285v-275h285v-69h-360v213h-219l-103 -213h-83zM209 282h188v393z" />
<glyph unicode="&#xc7;" horiz-adv-x="550" d="M311 -12l-21 -48q10 4 21 4q31 0 51 -20.5t20 -52.5q0 -36 -24.5 -60t-63.5 -24q-66 0 -86 50l25 18q13 -30 53 -30q20 0 33.5 12t14.5 32q-1 18 -12.5 30t-27.5 12q-23 0 -35 -18l-28 9l41 86q-110 6 -174.5 105.5t-64.5 276.5q0 179 65.5 281t188.5 102 q111 0 172.5 -79t61.5 -191h-75q-1 52 -14.5 94.5t-49.5 74t-90 31.5q-182 0 -182 -320q0 -152 50 -229t134 -77q77 0 112.5 53.5t39.5 130.5h75q0 -99 -55.5 -172.5t-154.5 -80.5z" />
<glyph unicode="&#xc8;" horiz-adv-x="475" d="M70 0v740h347v-69h-272v-258h272v-69h-272v-275h272v-69h-347zM125 950l221 -126l-25 -47l-223 119z" />
<glyph unicode="&#xc9;" horiz-adv-x="475" d="M70 0v740h347v-69h-272v-258h272v-69h-272v-275h272v-69h-347zM129 824l221 126l28 -54l-223 -119z" />
<glyph unicode="&#xca;" horiz-adv-x="475" d="M70 0v740h347v-69h-272v-258h272v-69h-272v-275h272v-69h-347zM270 921l140 -123h-71l-102 85l-102 -85h-71l141 123h65z" />
<glyph unicode="&#xcb;" horiz-adv-x="475" d="M70 0v740h347v-69h-272v-258h272v-69h-272v-275h272v-69h-347zM195 912v-114h-64v114h64zM344 912v-114h-65v114h65z" />
<glyph unicode="&#xcc;" horiz-adv-x="210" d="M67 0v740h75v-740h-75zM-10 947l220 -126l-25 -47l-223 119z" />
<glyph unicode="&#xcd;" horiz-adv-x="210" d="M67 0v740h75v-740h-75zM0 821l221 126l27 -54l-223 -119z" />
<glyph unicode="&#xce;" horiz-adv-x="210" d="M67 0v740h75v-740h-75zM137 918l141 -123h-71l-102 85l-103 -85h-70l140 123h65z" />
<glyph unicode="&#xcf;" horiz-adv-x="210" d="M67 0v740h75v-740h-75zM63 912v-114h-65v114h65zM212 912v-114h-65v114h65z" />
<glyph unicode="&#xd0;" horiz-adv-x="582" d="M67 408v332h170q169 0 242 -107q65 -95 65 -263q0 -103 -23.5 -177t-67 -115t-96 -59.5t-118.5 -18.5h-172v340h-81v68h81zM142 671v-263h165v-68h-165v-271h91q123 0 179 71t56 230q0 155 -52 226q-53 75 -185 75h-89z" />
<glyph unicode="&#xd1;" horiz-adv-x="596" d="M159 740l300 -617v617h68v-740h-84l-306 632v-632h-68v740h90zM448 887l30 -41q-38 -40 -94 -40q-49 0 -87 13q-40 15 -77 15q-43 0 -74 -31l-31 41q13 17 40 30.5t53 13.5q51 0 91 -14q47 -15 79 -15q39 0 70 28z" />
<glyph unicode="&#xd2;" horiz-adv-x="613" d="M37 370v1q0 169 70 275.5t199 106.5t199 -106.5t70 -276.5q0 -74 -15 -140.5t-46 -122t-84.5 -88t-123.5 -32.5q-129 0 -199 106.5t-70 276.5zM114 370v-1q0 -150 51 -232t141 -82t141.5 82t51.5 233t-51.5 233t-141.5 82t-141 -82t-51 -233zM195 947l220 -126l-25 -47 l-223 119z" />
<glyph unicode="&#xd3;" horiz-adv-x="613" d="M37 370v1q0 169 70 275.5t199 106.5t199 -106.5t70 -276.5q0 -74 -15 -140.5t-46 -122t-84.5 -88t-123.5 -32.5q-129 0 -199 106.5t-70 276.5zM114 370v-1q0 -150 51 -232t141 -82t141.5 82t51.5 233t-51.5 233t-141.5 82t-141 -82t-51 -233zM199 821l220 126l28 -54 l-223 -119z" />
<glyph unicode="&#xd4;" horiz-adv-x="613" d="M37 370v1q0 169 70 275.5t199 106.5t199 -106.5t70 -276.5q0 -74 -15 -140.5t-46 -122t-84.5 -88t-123.5 -32.5q-129 0 -199 106.5t-70 276.5zM114 370v-1q0 -150 51 -232t141 -82t141.5 82t51.5 233t-51.5 233t-141.5 82t-141 -82t-51 -233zM339 918l140 -123h-70 l-102 85l-103 -85h-71l141 123h65z" />
<glyph unicode="&#xd5;" horiz-adv-x="613" d="M37 370v1q0 169 70 275.5t199 106.5t199 -106.5t70 -276.5q0 -74 -15 -140.5t-46 -122t-84.5 -88t-123.5 -32.5q-129 0 -199 106.5t-70 276.5zM114 370v-1q0 -150 51 -232t141 -82t141.5 82t51.5 233t-51.5 233t-141.5 82t-141 -82t-51 -233zM456 892l30 -41 q-38 -40 -93 -40q-49 0 -88 13q-40 15 -77 15q-44 0 -73 -31l-31 41q13 17 39.5 30.5t52.5 13.5q50 0 92 -14q45 -15 78 -15q39 0 70 28z" />
<glyph unicode="&#xd6;" horiz-adv-x="613" d="M37 370v1q0 169 70 275.5t199 106.5t199 -106.5t70 -276.5q0 -74 -15 -140.5t-46 -122t-84.5 -88t-123.5 -32.5q-129 0 -199 106.5t-70 276.5zM114 370v-1q0 -150 51 -232t141 -82t141.5 82t51.5 233t-51.5 233t-141.5 82t-141 -82t-51 -233zM265 912v-114h-65v114h65z M413 912v-114h-64v114h64z" />
<glyph unicode="&#xd7;" horiz-adv-x="537" d="M78 0l-45 46l190 206l-190 203l45 47l190 -206l191 206l45 -47l-191 -203l191 -206l-45 -46l-191 207z" />
<glyph unicode="&#xd8;" horiz-adv-x="613" d="M496 658l82 107h64l-118 -153q51 -98 51 -242q0 -74 -15 -140.5t-46 -122t-84.5 -88t-123.5 -32.5q-118 0 -187 94l-82 -106h-64l115 152q-51 100 -51 243q0 170 70 276.5t199 106.5q120 0 190 -95zM142 197l307 399q-48 89 -143 89q-90 0 -141 -82t-51 -233 q0 -101 28 -173zM469 541l-305 -399q49 -87 142 -87q90 0 141.5 82t51.5 233q0 105 -30 171z" />
<glyph unicode="&#xd9;" horiz-adv-x="553" d="M64 740h75v-540q0 -75 37 -111q33 -33 100 -33t101 33q37 36 37 111v540h75v-545q0 -100 -52 -152q-54 -56 -160 -56t-162 56q-51 52 -51 152v545zM142 947l221 -126l-25 -47l-223 119z" />
<glyph unicode="&#xda;" horiz-adv-x="553" d="M64 740h75v-540q0 -75 37 -111q33 -33 100 -33t101 33q37 36 37 111v540h75v-545q0 -100 -52 -152q-54 -56 -160 -56t-162 56q-51 52 -51 152v545zM172 821l221 126l28 -54l-224 -119z" />
<glyph unicode="&#xdb;" horiz-adv-x="553" d="M64 740h75v-540q0 -75 37 -111q33 -33 100 -33t101 33q37 36 37 111v540h75v-545q0 -100 -52 -152q-54 -56 -160 -56t-162 56q-51 52 -51 152v545zM309 924l141 -123h-71l-102 86l-103 -86h-70l141 123h64z" />
<glyph unicode="&#xdc;" horiz-adv-x="553" d="M64 740h75v-540q0 -75 37 -111q33 -33 100 -33t101 33q37 36 37 111v540h75v-545q0 -100 -52 -152q-54 -56 -160 -56t-162 56q-51 52 -51 152v545zM235 912v-114h-65v114h65zM384 912v-114h-65v114h65z" />
<glyph unicode="&#xdd;" horiz-adv-x="449" d="M187 0v269l-190 471h78l150 -399l149 399h78l-190 -471v-269h-75zM135 821l221 126l27 -54l-223 -119z" />
<glyph unicode="&#xde;" horiz-adv-x="499" d="M70 0v740h75v-146h65q121 0 185 -50q33 -27 52.5 -72.5t19.5 -97.5t-19.5 -97t-52.5 -72q-64 -50 -185 -50h-65v-155h-75zM145 525v-301h65q52 0 81.5 7t54.5 27q45 37 45 116q0 36 -13 68t-33 49q-23 20 -53 27t-82 7h-65z" />
<glyph unicode="&#xdf;" horiz-adv-x="505" d="M66 0v501q0 131 40 184q46 68 148 68q77 0 122.5 -52t45.5 -134q0 -140 -99 -184q67 -13 103 -65.5t36 -124.5q0 -95 -47.5 -150.5t-134.5 -55.5q-58 0 -100 33.5t-54 108.5l2 -129h-62zM133 496v-297h34q2 -76 34 -112.5t76 -36.5q54 0 84.5 38t30.5 101q0 76 -42 118 q-39 34 -98 34q-15 1 -34 1v62q12 0 22 1q55 1 83.5 42t28.5 112q0 59 -29 95t-78 36q-58 0 -88 -46q-24 -37 -24 -148z" />
<glyph unicode="&#xe0;" horiz-adv-x="490" d="M424 544v-544h-62q0 78 1 104q-18 -56 -55.5 -86.5t-88.5 -30.5q-81 0 -131.5 78.5t-50.5 205.5q0 128 49 207t133 79q105 0 144 -118q-1 33 -1 105h62zM104 272v-1q0 -96 33.5 -157t93.5 -61q59 0 95 60q31 51 31 159q0 109 -31 159q-36 60 -95 60q-60 0 -93.5 -61 t-33.5 -158zM127 769l220 -126l-25 -47l-223 119z" />
<glyph unicode="&#xe1;" horiz-adv-x="490" d="M424 544v-544h-62q0 78 1 104q-18 -56 -55.5 -86.5t-88.5 -30.5q-81 0 -131.5 78.5t-50.5 205.5q0 128 49 207t133 79q105 0 144 -118q-1 33 -1 105h62zM104 272v-1q0 -96 33.5 -157t93.5 -61q59 0 95 60q31 51 31 159q0 109 -31 159q-36 60 -95 60q-60 0 -93.5 -61 t-33.5 -158zM150 643l220 126l28 -54l-223 -119z" />
<glyph unicode="&#xe2;" horiz-adv-x="490" d="M424 544v-544h-62q0 78 1 104q-18 -56 -55.5 -86.5t-88.5 -30.5q-81 0 -131.5 78.5t-50.5 205.5q0 128 49 207t133 79q105 0 144 -118q-1 33 -1 105h62zM104 272v-1q0 -96 33.5 -157t93.5 -61q59 0 95 60q31 51 31 159q0 109 -31 159q-36 60 -95 60q-60 0 -93.5 -61 t-33.5 -158zM267 740l141 -123h-71l-102 85l-103 -85h-70l140 123h65z" />
<glyph unicode="&#xe3;" horiz-adv-x="490" d="M424 544v-544h-62q0 78 1 104q-18 -56 -55.5 -86.5t-88.5 -30.5q-81 0 -131.5 78.5t-50.5 205.5q0 128 49 207t133 79q105 0 144 -118q-1 33 -1 105h62zM104 272v-1q0 -96 33.5 -157t93.5 -61q59 0 95 60q31 51 31 159q0 109 -31 159q-36 60 -95 60q-60 0 -93.5 -61 t-33.5 -158zM395 714l30 -40q-37 -41 -94 -41q-49 0 -87 13q-42 15 -77 15q-45 0 -74 -31l-31 41q13 17 39.5 30.5t52.5 13.5q50 0 92 -14q45 -15 78 -15q38 0 71 28z" />
<glyph unicode="&#xe4;" horiz-adv-x="490" d="M424 544v-544h-62q0 78 1 104q-18 -56 -55.5 -86.5t-88.5 -30.5q-81 0 -131.5 78.5t-50.5 205.5q0 128 49 207t133 79q105 0 144 -118q-1 33 -1 105h62zM104 272v-1q0 -96 33.5 -157t93.5 -61q59 0 95 60q31 51 31 159q0 109 -31 159q-36 60 -95 60q-60 0 -93.5 -61 t-33.5 -158zM189 731v-114h-64v114h64zM338 731v-114h-65v114h65z" />
<glyph unicode="&#xe5;" horiz-adv-x="490" d="M424 544v-544h-62q0 78 1 104q-18 -56 -55.5 -86.5t-88.5 -30.5q-81 0 -131.5 78.5t-50.5 205.5q0 128 49 207t133 79q105 0 144 -118q-1 33 -1 105h62zM104 272v-1q0 -96 33.5 -157t93.5 -61q59 0 95 60q31 51 31 159q0 109 -31 159q-36 60 -95 60q-60 0 -93.5 -61 t-33.5 -158zM231 791h1q41 0 70 -29.5t29 -70.5t-29.5 -70t-70.5 -29q-42 0 -71 29t-29 70t29.5 70.5t70.5 29.5zM231 751h-1q-24 0 -41 -17t-17 -42q0 -24 17 -41t42 -17t41.5 17t16.5 41q0 25 -16.5 42t-41.5 17z" />
<glyph unicode="&#xe6;" horiz-adv-x="799" d="M767 256h-340q0 -90 35.5 -148t104.5 -58q50 0 83.5 29.5t44.5 78.5h66q-14 -78 -63 -124.5t-122 -46.5q-108 0 -153 117l1 -104h-62l1 104q-17 -56 -54.5 -86.5t-89.5 -30.5q-85 0 -136.5 78t-51.5 206t50 207t138 79q105 0 144 -118l-1 105h62l-1 -105q45 118 152 118 q86 0 138 -71q54 -74 54 -230zM98 272v-1q0 -95 35.5 -156.5t96.5 -61.5q49 0 79.5 36.5t40 81.5t9.5 101q0 109 -33 160q-34 59 -96 59q-61 0 -96.5 -62t-35.5 -157zM427 308h272q-1 93 -37 142.5t-101 49.5q-64 0 -100 -59q-32 -51 -34 -133z" />
<glyph unicode="&#xe7;" horiz-adv-x="430" d="M254 -11l-22 -47q10 4 22 4q29 0 50 -21.5t21 -53.5q0 -34 -25.5 -57t-61.5 -23q-66 0 -85 49l24 19q13 -30 52 -30q19 0 33 11.5t14 30.5q0 17 -11.5 28.5t-26.5 11.5q-23 0 -35 -18l-29 9l40 87q-64 4 -108.5 46t-64 102.5t-19.5 133.5q0 132 57 209t150 77 q82 0 129 -56t51 -145h-68q-14 138 -114 138q-66 0 -99 -58q-35 -63 -35 -164q0 -107 35 -164.5t100 -57.5q49 0 78 36t38 99h68q-9 -81 -49 -134.5t-109 -61.5z" />
<glyph unicode="&#xe8;" horiz-adv-x="478" d="M441 252h-332q0 -89 36 -145.5t102 -56.5q48 0 79.5 29.5t42.5 78.5h66q-14 -81 -68 -128q-51 -43 -120 -43q-54 0 -95.5 24.5t-65 65.5t-35.5 90t-12 104q0 128 55.5 207t150.5 79t146 -77q52 -77 50 -228zM109 311h264q-2 86 -36.5 137.5t-94.5 51.5q-58 0 -94.5 -53.5 t-38.5 -135.5zM127 769l221 -126l-25 -47l-223 119z" />
<glyph unicode="&#xe9;" horiz-adv-x="478" d="M441 252h-332q0 -89 36 -145.5t102 -56.5q48 0 79.5 29.5t42.5 78.5h66q-14 -81 -68 -128q-51 -43 -120 -43q-54 0 -95.5 24.5t-65 65.5t-35.5 90t-12 104q0 128 55.5 207t150.5 79t146 -77q52 -77 50 -228zM109 311h264q-2 86 -36.5 137.5t-94.5 51.5q-58 0 -94.5 -53.5 t-38.5 -135.5zM131 643l221 126l28 -54l-224 -119z" />
<glyph unicode="&#xea;" horiz-adv-x="478" d="M441 252h-332q0 -89 36 -145.5t102 -56.5q48 0 79.5 29.5t42.5 78.5h66q-14 -81 -68 -128q-51 -43 -120 -43q-54 0 -95.5 24.5t-65 65.5t-35.5 90t-12 104q0 128 55.5 207t150.5 79t146 -77q52 -77 50 -228zM109 311h264q-2 86 -36.5 137.5t-94.5 51.5q-58 0 -94.5 -53.5 t-38.5 -135.5zM272 740l140 -123h-71l-102 85l-102 -85h-71l141 123h65z" />
<glyph unicode="&#xeb;" horiz-adv-x="478" d="M441 252h-332q0 -89 36 -145.5t102 -56.5q48 0 79.5 29.5t42.5 78.5h66q-14 -81 -68 -128q-51 -43 -120 -43q-54 0 -95.5 24.5t-65 65.5t-35.5 90t-12 104q0 128 55.5 207t150.5 79t146 -77q52 -77 50 -228zM109 311h264q-2 86 -36.5 137.5t-94.5 51.5q-58 0 -94.5 -53.5 t-38.5 -135.5zM197 731v-114h-64v114h64zM346 731v-114h-65v114h65z" />
<glyph unicode="&#xec;" horiz-adv-x="215" d="M74 0v544h67v-544h-67zM-4 769l221 -126l-25 -47l-223 119z" />
<glyph unicode="&#xed;" horiz-adv-x="215" d="M74 0v544h67v-544h-67zM-2 643l221 126l28 -54l-223 -119z" />
<glyph unicode="&#xee;" horiz-adv-x="215" d="M74 0v544h67v-544h-67zM140 740l140 -123h-70l-103 85l-102 -85h-71l141 123h65z" />
<glyph unicode="&#xef;" horiz-adv-x="215" d="M74 0v544h67v-544h-67zM66 731v-114h-65v114h65zM214 731v-114h-65v114h65z" />
<glyph unicode="&#xf0;" horiz-adv-x="494" d="M234 619l-161 -63v55l125 48q-42 36 -92 61l62 25q46 -24 91 -62l159 62v-55l-121 -47q77 -72 120 -166q39 -85 39 -199q0 -134 -53 -212.5t-160 -78.5q-103 0 -154.5 75.5t-51.5 195.5q0 119 50.5 195t144.5 76q74 0 116 -60q-10 27 -41 71q-46 60 -73 79zM104 258v-1 q0 -99 35.5 -153t103.5 -54q71 0 107 55t36 154q0 90 -33.5 148.5t-107.5 58.5q-70 0 -105.5 -53.5t-35.5 -154.5z" />
<glyph unicode="&#xf1;" horiz-adv-x="497" d="M66 0v544h60q0 -59 -2 -93q39 106 154 106q73 0 114.5 -45.5t41.5 -140.5v-371h-67v350q0 141 -104 141q-61 0 -95.5 -43t-34.5 -126v-322h-67zM399 714l29 -40q-37 -41 -93 -41q-49 0 -87 13q-42 15 -78 15q-46 0 -73 -31l-31 41q13 17 39.5 30.5t52.5 13.5q50 0 92 -14 q45 -15 78 -15q38 0 71 28z" />
<glyph unicode="&#xf2;" horiz-adv-x="493" d="M37 272v1q0 124 53 204t157 80q103 0 156 -80t53 -205t-53 -205t-156 -80q-104 0 -157 80t-53 205zM107 272v-1q0 -221 141 -221q138 0 138 222t-140 222q-139 0 -139 -222zM135 769l220 -126l-25 -47l-223 119z" />
<glyph unicode="&#xf3;" horiz-adv-x="493" d="M37 272v1q0 124 53 204t157 80q103 0 156 -80t53 -205t-53 -205t-156 -80q-104 0 -157 80t-53 205zM107 272v-1q0 -221 141 -221q138 0 138 222t-140 222q-139 0 -139 -222zM139 643l221 126l27 -54l-223 -119z" />
<glyph unicode="&#xf4;" horiz-adv-x="493" d="M37 272v1q0 124 53 204t157 80q103 0 156 -80t53 -205t-53 -205t-156 -80q-104 0 -157 80t-53 205zM107 272v-1q0 -221 141 -221q138 0 138 222t-140 222q-139 0 -139 -222zM279 740l140 -123h-70l-102 85l-103 -85h-70l140 123h65z" />
<glyph unicode="&#xf5;" horiz-adv-x="493" d="M37 272v1q0 124 53 204t157 80q103 0 156 -80t53 -205t-53 -205t-156 -80q-104 0 -157 80t-53 205zM107 272v-1q0 -221 141 -221q138 0 138 222t-140 222q-139 0 -139 -222zM397 714l29 -40q-37 -41 -93 -41q-49 0 -87 13q-42 15 -78 15q-44 0 -73 -31l-31 41 q13 17 39.5 30.5t52.5 13.5q50 0 92 -14q45 -15 78 -15q38 0 71 28z" />
<glyph unicode="&#xf6;" horiz-adv-x="493" d="M37 272v1q0 124 53 204t157 80q103 0 156 -80t53 -205t-53 -205t-156 -80q-104 0 -157 80t-53 205zM107 272v-1q0 -221 141 -221q138 0 138 222t-140 222q-139 0 -139 -222zM205 731v-114h-65v114h65zM354 731v-114h-65v114h65z" />
<glyph unicode="&#xf7;" horiz-adv-x="537" d="M307 523v-110h-77v110h77zM33 220v62h471v-62h-471zM307 89v-110h-77v110h77z" />
<glyph unicode="&#xf8;" horiz-adv-x="493" d="M455 567h58l-95 -118q38 -70 38 -177q0 -125 -53 -205t-156 -80q-90 0 -142 68l-66 -78h-59l95 118q-38 68 -38 177q0 125 53 205t157 80q90 0 141 -67zM123 161l226 274q-33 59 -103 59q-68 0 -104 -57.5t-36 -164.5q0 -63 17 -111zM370 383l-226 -274q33 -59 104 -59 q68 0 103.5 57.5t35.5 164.5q0 67 -17 111z" />
<glyph unicode="&#xf9;" horiz-adv-x="497" d="M431 544v-544h-62q0 61 2 95q-19 -55 -60 -81.5t-92 -26.5q-73 0 -114.5 45.5t-41.5 140.5v371h67v-350q0 -141 104 -141q61 0 95.5 43t34.5 126v322h67zM117 769l221 -126l-25 -47l-224 119z" />
<glyph unicode="&#xfa;" horiz-adv-x="497" d="M431 544v-544h-62q0 61 2 95q-19 -55 -60 -81.5t-92 -26.5q-73 0 -114.5 45.5t-41.5 140.5v371h67v-350q0 -141 104 -141q61 0 95.5 43t34.5 126v322h67zM153 643l221 126l28 -54l-223 -119z" />
<glyph unicode="&#xfb;" horiz-adv-x="497" d="M431 544v-544h-62q0 61 2 95q-19 -55 -60 -81.5t-92 -26.5q-73 0 -114.5 45.5t-41.5 140.5v371h67v-350q0 -141 104 -141q61 0 95.5 43t34.5 126v322h67zM281 740l140 -123h-70l-102 85l-103 -85h-70l140 123h65z" />
<glyph unicode="&#xfc;" horiz-adv-x="497" d="M431 544v-544h-62q0 61 2 95q-19 -55 -60 -81.5t-92 -26.5q-73 0 -114.5 45.5t-41.5 140.5v371h67v-350q0 -141 104 -141q61 0 95.5 43t34.5 126v322h67zM207 731v-114h-65v114h65zM355 731v-114h-64v114h64z" />
<glyph unicode="&#xfd;" horiz-adv-x="399" d="M93 -201l70 214l-157 531h70l121 -433l128 433h69l-234 -745h-67zM104 643l221 126l27 -54l-223 -119z" />
<glyph unicode="&#xfe;" horiz-adv-x="490" d="M66 -201v941h67v-192q0 -22 -1 -53t-1 -44q36 106 139 106q82 0 132.5 -78.5t50.5 -207.5q0 -127 -49 -205.5t-134 -78.5q-48 0 -85 29.5t-54 79.5q0 -8 1 -40.5t1 -59.5v-197h-67zM386 272v1q0 96 -33 157t-94 61q-59 0 -93 -60q-33 -51 -33 -159q0 -107 33 -159 q34 -60 93 -60q61 0 94 61t33 158z" />
<glyph unicode="&#xff;" horiz-adv-x="399" d="M93 -201l70 214l-157 531h70l121 -433l128 433h69l-234 -745h-67zM157 731v-114h-64v114h64zM306 731v-114h-65v114h65z" />
<glyph unicode="&#x131;" horiz-adv-x="215" d="M74 0v544h67v-544h-67z" />
<glyph unicode="&#x141;" horiz-adv-x="397" d="M-5 241v76l75 54v369h75v-316l136 97v-76l-136 -99v-277h236v-69h-311v296z" />
<glyph unicode="&#x142;" horiz-adv-x="215" d="M74 360l-79 -67v62l79 66v319h67v-261l79 66v-62l-79 -66v-417h-67v360z" />
<glyph unicode="&#x152;" horiz-adv-x="917" d="M578 671v-258h282v-69h-282v-275h282v-69h-348v70q0 13 0.5 38.5t0.5 37.5q-60 -159 -208 -159q-124 0 -196 104.5t-72 278.5t72 278.5t196 104.5q148 0 208 -158q0 12 -0.5 37.5t-0.5 38.5v69h348v-69h-282zM114 367v-1q0 -145 54 -227.5t142 -82.5q89 0 141 78.5 t52 232.5q0 158 -52 237.5t-143 79.5q-87 0 -140.5 -83.5t-53.5 -233.5z" />
<glyph unicode="&#x153;" horiz-adv-x="821" d="M789 256h-335q0 -92 34 -149t104 -57q49 0 81.5 29.5t43.5 78.5h66q-15 -83 -68 -128q-51 -43 -119 -43q-131 0 -177 138q-41 -138 -177 -138q-101 0 -153.5 80t-52.5 205t52.5 205t155.5 80q135 0 175 -135q22 65 67.5 100t108.5 35q93 0 144 -76q50 -74 50 -225z M106 272v-1q0 -221 140 -221q141 0 141 222t-142 222q-139 0 -139 -222zM454 308h268q-2 91 -36.5 141.5t-97.5 50.5t-97.5 -56t-36.5 -136z" />
<glyph unicode="&#x160;" horiz-adv-x="494" d="M36 204h73q6 -79 45 -115t88 -36q61 0 100.5 38.5t39.5 105.5q0 37 -11.5 63.5t-41 44.5t-45 25t-56.5 20q-7 3 -11 4q-34 12 -54.5 21.5t-51.5 31.5t-47 57t-16 82q-1 96 53 152t142 56q174 0 198 -188h-72q-16 124 -124 124q-56 0 -88.5 -36t-32.5 -95q0 -28 9.5 -50 t21.5 -35.5t39 -27t44 -20t55 -18.5q24 -8 40 -15t42 -24t42 -37.5t28.5 -54.5t12.5 -76q0 -96 -61 -155t-153 -59q-91 0 -148 55.5t-60 161.5zM78 911h69l100 -84l100 84h69l-136 -120h-66z" />
<glyph unicode="&#x161;" horiz-adv-x="403" d="M351 403h-66q0 94 -88 94q-35 0 -57 -22.5t-22 -58.5q0 -42 29 -63.5t88 -39.5q130 -39 130 -164q0 -71 -46 -116.5t-116 -45.5q-76 0 -121 44.5t-49 128.5h66q1 -54 29 -82.5t75 -28.5q43 0 67.5 26.5t24.5 68.5q0 46 -29 71t-90 44q-61 20 -94.5 54t-33.5 101 q0 65 42.5 104t109.5 39q70 0 109.5 -39.5t41.5 -114.5zM32 734h70l100 -85l99 85h70l-136 -121h-66z" />
<glyph unicode="&#x178;" horiz-adv-x="449" d="M187 0v269l-190 471h78l150 -399l149 399h78l-190 -471v-269h-75zM183 912v-114h-65v114h65zM332 912v-114h-65v114h65z" />
<glyph unicode="&#x17d;" horiz-adv-x="486" d="M445 677l-324 -608h336v-69h-423v60l323 611h-323v69h411v-63zM71 905h69l100 -84l100 84h69l-135 -121h-67z" />
<glyph unicode="&#x17e;" horiz-adv-x="397" d="M20 0v62l261 419h-244v63h324v-64l-260 -417h269v-63h-350zM24 732h69l101 -85l99 85h69l-135 -121h-66z" />
<glyph unicode="&#x192;" d="M329 483h142v-60h-146l-65 -397q-5 -40 -9 -62.5t-13.5 -51.5t-24.5 -49q-49 -68 -152 -68q-31 0 -77 11l15 68q36 -10 60 -10q65 0 91 38t35 105l66 416h-142v60h145q21 167 77 219q51 51 128 51q29 0 58 -8l-14 -67q-24 6 -38 6q-56 -3 -85 -35q-36 -38 -51 -166z" />
<glyph unicode="&#x2c6;" horiz-adv-x="418" d="M241 740l141 -123h-71l-102 85l-103 -85h-70l141 123h64z" />
<glyph unicode="&#x2c7;" horiz-adv-x="418" d="M40 734h69l100 -85l100 85h69l-136 -121h-66z" />
<glyph unicode="&#x2c9;" horiz-adv-x="418" d="M383 698v-51h-348v51h348z" />
<glyph unicode="&#x2d8;" horiz-adv-x="418" d="M33 728h57q22 -59 120 -59q97 0 119 59h56q-13 -48 -56 -78.5t-122 -30.5q-59 0 -107.5 26.5t-66.5 82.5z" />
<glyph unicode="&#x2d9;" horiz-adv-x="257" d="M162 731v-114h-66v114h66z" />
<glyph unicode="&#x2da;" horiz-adv-x="260" d="M130 791h1q41 0 70 -29.5t29 -70.5t-29.5 -70t-70.5 -29q-42 0 -71 29t-29 70t29.5 70.5t70.5 29.5zM130 751h-1q-24 0 -41 -17t-17 -42q0 -24 17 -41t42 -17t41.5 17t16.5 41q0 25 -16.5 42t-41.5 17z" />
<glyph unicode="&#x2db;" horiz-adv-x="216" d="M118 6l50 3q-42 -32 -60 -53t-18 -48t18 -44.5t44 -17.5q23 0 54 12v-46q-28 -18 -69 -18q-47 0 -75.5 27.5t-28.5 69.5q0 26 14 48.5t29 35t42 31.5z" />
<glyph unicode="&#x2dc;" horiz-adv-x="418" d="M359 714l30 -40q-37 -41 -94 -41q-49 0 -87 13q-42 15 -77 15q-45 0 -74 -31l-31 41q13 17 39.5 30.5t52.5 13.5q50 0 92 -14q45 -15 78 -15q38 0 71 28z" />
<glyph unicode="&#x2dd;" horiz-adv-x="418" d="M54 634l169 132l40 -43l-174 -127zM221 634l169 132l40 -43l-174 -127z" />
<glyph unicode="&#x3a9;" horiz-adv-x="673" d="M189 58v3q-56 58 -92 145t-36 192q0 157 79.5 254.5t199.5 97.5q121 0 196 -100.5t75 -247.5q0 -108 -38 -198t-92 -143v-3h143v-58h-222v42q60 48 101 139.5t41 206.5q-1 73 -22.5 140t-70 115t-113.5 48q-95 0 -152.5 -86.5t-57.5 -217.5q0 -110 42 -205t100 -140v-42 h-222v58h141z" />
<glyph unicode="&#x3bc;" horiz-adv-x="500" d="M66 -181v725h67v-338q0 -84 26 -120q24 -33 76 -33q63 0 98 45q34 44 34 141v305h67v-544h-62q0 28 2 98q-16 -53 -56.5 -82t-93.5 -29q-32 0 -58 13.5t-35 40.5q2 -58 2 -71v-151h-67z" />
<glyph unicode="&#x3c0;" horiz-adv-x="537" d="M509 489h-76v-339q0 -96 14 -150h-64q-16 30 -16 144v345h-174q-4 -117 -24.5 -267t-46.5 -222h-65q27 81 46.5 225t23.5 264q-72 0 -105 -12l-11 45q41 27 134 27h371z" />
<glyph unicode="&#x2013;" horiz-adv-x="500" d="M22 313h456v-67h-456v67z" />
<glyph unicode="&#x2014;" horiz-adv-x="1000" d="M22 313h956v-67h-956v67z" />
<glyph unicode="&#x2018;" horiz-adv-x="257" d="M128 740l71 -189h-65l-79 189h73z" />
<glyph unicode="&#x2019;" horiz-adv-x="257" d="M58 551l71 189h73l-79 -189h-65z" />
<glyph unicode="&#x201a;" horiz-adv-x="257" d="M58 -83l71 189h73l-79 -189h-65z" />
<glyph unicode="&#x201c;" horiz-adv-x="397" d="M136 740l71 -189h-65l-80 189h74zM260 740l72 -189h-66l-79 189h73z" />
<glyph unicode="&#x201d;" horiz-adv-x="397" d="M66 551l71 189h73l-79 -189h-65zM190 551l72 189h73l-80 -189h-65z" />
<glyph unicode="&#x201e;" horiz-adv-x="397" d="M66 -83l71 189h73l-79 -189h-65zM190 -83l72 189h73l-80 -189h-65z" />
<glyph unicode="&#x2020;" horiz-adv-x="500" d="M283 740v-198h168v-66h-168v-576h-67v576h-167v66h167v198h67z" />
<glyph unicode="&#x2021;" horiz-adv-x="500" d="M284 740v-180h167v-66h-167v-348h167v-66h-167v-180h-67v180h-168v66h168v348h-168v66h168v180h67z" />
<glyph unicode="&#x2022;" horiz-adv-x="421" d="M211 489h1q50 0 85.5 -35t35.5 -85t-35.5 -85.5t-86.5 -35.5q-52 0 -87.5 35.5t-34.5 85.5q-1 50 34.5 85t87.5 35z" />
<glyph unicode="&#x2026;" horiz-adv-x="1000" d="M133 0v106h68v-106h-68zM466 0v106h68v-106h-68zM799 0v106h68v-106h-68z" />
<glyph unicode="&#x2030;" horiz-adv-x="1059" d="M22 583v1q0 76 45 122.5t113 46.5q69 0 113.5 -46.5t44.5 -123.5t-44.5 -123.5t-113.5 -46.5q-68 0 -113 46.5t-45 123.5zM73 583v-1q0 -55 29.5 -87.5t77.5 -32.5t78 33t30 88t-30 88t-78 33t-77.5 -33t-29.5 -88zM364 157v1q0 77 44.5 123t113.5 46q68 0 113 -46.5 t45 -123.5t-45 -123.5t-113 -46.5q-69 0 -113.5 46.5t-44.5 123.5zM415 157v-1q0 -55 29.5 -87.5t77.5 -32.5t77.5 33t29.5 88t-29.5 88t-77.5 33t-77.5 -33t-29.5 -88zM721 157v1q0 76 45 122.5t113 46.5q69 0 113.5 -46.5t44.5 -123.5t-44.5 -123.5t-113.5 -46.5 q-68 0 -113 46.5t-45 123.5zM772 157v-1q0 -55 29.5 -87.5t77.5 -32.5t77.5 33t29.5 88t-29.5 88t-77.5 33t-77.5 -33t-29.5 -88zM593 744l-423 -748h-63l424 748h62z" />
<glyph unicode="&#x2039;" horiz-adv-x="259" d="M43 278l108 190h65l-108 -190l108 -187h-65z" />
<glyph unicode="&#x203a;" horiz-adv-x="259" d="M108 468l108 -190l-108 -187h-65l108 187l-108 190h65z" />
<glyph unicode="&#x2044;" horiz-adv-x="113" d="M-150 -4l357 748h56l-357 -748h-56z" />
<glyph unicode="&#x20ac;" horiz-adv-x="556" d="M418 334l-11 -60h-223q11 -106 47.5 -163t97.5 -57q49 0 82.5 25.5t42.5 100.5h78q-8 -101 -65.5 -146.5t-143.5 -45.5q-99 0 -154.5 76.5t-68.5 209.5h-82l11 60h67v28q0 29 1 43h-79l11 60h73q16 127 71.5 199t153.5 72q55 0 96.5 -21t63 -55t32 -66t14.5 -66h-76 q-9 70 -42.5 106t-85.5 36q-65 0 -100 -51t-45 -154h259l-11 -60h-251q0 -7 -0.5 -21t-0.5 -22v-28h238z" />
<glyph unicode="&#x2113;" horiz-adv-x="459" d="M403 143l33 -28q-61 -123 -173 -123q-79 0 -117 56t-40 147v14q-42 -37 -55 -48l-22 40q55 49 77 73v292q0 131 41.5 189t102.5 58q56 0 85.5 -45.5t29.5 -119.5q0 -178 -196 -387v-38q1 -91 30 -133.5t76 -42.5q41 0 74 28t54 68zM169 569v-236q150 179 150 315 q0 112 -69 112q-33 0 -57 -46.5t-24 -144.5z" />
<glyph unicode="&#x2122;" horiz-adv-x="943" d="M387 303v437h83l165 -344l166 344h82v-437h-58v358l-168 -358h-44l-167 357v-357h-59zM148 303v386h-121v51h305v-51h-121v-386h-63z" />
<glyph unicode="&#x2126;" horiz-adv-x="673" d="M189 58v3q-56 58 -92 145t-36 192q0 157 79.5 254.5t199.5 97.5q121 0 196 -100.5t75 -247.5q0 -108 -38 -198t-92 -143v-3h143v-58h-222v42q60 48 101 139.5t41 206.5q-1 73 -22.5 140t-70 115t-113.5 48q-95 0 -152.5 -86.5t-57.5 -217.5q0 -110 42 -205t100 -140v-42 h-222v58h141z" />
<glyph unicode="&#x212e;" horiz-adv-x="924" d="M887 359h-689q-6 0 -6 -4v-209q0 -11 9 -24q110 -113 261 -113q163 0 274 127h61q-58 -68 -146.5 -108t-189.5 -40q-176 0 -300.5 112t-124.5 270t124.5 270t300.5 112t301 -112t125 -270v-11zM730 386v210q0 15 -10 25q-111 109 -258 109q-150 0 -260 -112 q-10 -12 -10 -26v-206q0 -6 6 -6h528q4 0 4 6z" />
<glyph unicode="&#x2202;" horiz-adv-x="517" d="M98 720l-24 52q66 56 155 56q99 0 169 -100.5t70 -296.5q0 -201 -64 -320t-182 -119q-86 0 -133 69t-47 172q0 120 60.5 195.5t143.5 75.5q57 0 97.5 -30t56.5 -63h2q1 11 1 44q0 138 -52.5 226.5t-127.5 88.5q-69 0 -125 -50zM228 50h1q66 0 110.5 82t54.5 204 q-14 42 -51 76.5t-88 34.5q-60 0 -103 -63t-43 -151q0 -83 32.5 -133t86.5 -50z" />
<glyph unicode="&#x2206;" horiz-adv-x="608" d="M31 0v48l238 710h75l234 -709v-49h-547zM98 57h409l-139 418q-7 24 -31.5 94.5t-31.5 98.5h-4q-5 -24 -27.5 -91.5t-28.5 -87.5z" />
<glyph unicode="&#x220f;" horiz-adv-x="659" d="M632 675h-102v-777h-65v777h-271v-777h-66v777h-102v63h606v-63z" />
<glyph unicode="&#x2211;" horiz-adv-x="525" d="M503 -102h-480v47l259 372l-247 373v48h452v-59h-361v-4l232 -348l-252 -360v-3h397v-66z" />
<glyph unicode="&#x2212;" horiz-adv-x="537" d="M33 220v62h471v-62h-471z" />
<glyph unicode="&#x2215;" horiz-adv-x="113" d="M-150 -4l357 748h56l-357 -748h-56z" />
<glyph unicode="&#x2219;" horiz-adv-x="257" d="M167 310v-111h-77v111h77z" />
<glyph unicode="&#x221a;" horiz-adv-x="548" d="M544 878l-211 -1038h-60l-155 496l-71 -27l-14 44l129 49l123 -392q12 -51 16 -78l2 -1q3 32 12 77l179 870h50z" />
<glyph unicode="&#x221e;" horiz-adv-x="763" d="M712 308v-1q0 -69 -44 -112t-105 -43q-45 0 -85.5 27.5t-95.5 89.5q-33 -38 -54.5 -58.5t-58 -39.5t-73.5 -19q-61 0 -104 44t-43 108q0 67 43.5 110.5t109.5 43.5q51 0 93.5 -30.5t90.5 -87.5q28 31 40.5 44.5t38 35t50.5 30t55 8.5q64 0 103 -41.5t39 -108.5zM202 196 h1q13 0 26 3t26 11t22 13.5t23 19t19.5 19t20 21.5t17.5 19q-25 30 -35.5 42t-33.5 33.5t-45 30t-47 8.5q-46 0 -72.5 -33t-26.5 -81q0 -45 29.5 -75.5t75.5 -30.5zM565 416h-1q-23 0 -48.5 -14t-39.5 -26.5t-39 -39.5t-28 -30q56 -62 88.5 -86t69.5 -24q45 0 72 32.5 t27 75.5q0 52 -28 82t-73 30z" />
<glyph unicode="&#x222b;" horiz-adv-x="347" d="M328 887l-12 -48q-14 9 -34 9q-31 0 -49 -25q-33 -42 -33 -190q0 -82 6 -266.5t6 -269.5q0 -149 -43 -215q-31 -50 -94 -50q-35 0 -60 16l13 51q22 -11 42 -11q30 0 46 25q33 45 33 184q0 86 -6.5 273t-6.5 269q0 163 51 221q36 41 90 41q28 0 51 -14z" />
<glyph unicode="&#x2248;" horiz-adv-x="541" d="M466 443l29 -24q-44 -95 -123 -95q-27 0 -49 9t-64 32q-54 34 -90 34q-31 0 -52.5 -19t-42.5 -55l-30 23q45 95 131 95q12 0 24 -2.5t19.5 -4.5t20 -8t16.5 -8t17 -10l12 -8q5 -3 16 -8.5t15.5 -8.5t13.5 -7t15 -5.5t14.5 -3t16.5 -1.5q28 0 48.5 18.5t42.5 56.5z M466 278l29 -24q-44 -95 -123 -95q-27 0 -49.5 9t-63.5 33q-59 34 -90 34q-51 0 -95 -75l-30 23q46 96 131 96q17 0 34.5 -5t27 -9.5t27 -15t20.5 -11.5q5 -3 15.5 -9t15.5 -8.5t14 -6.5t15 -6t15 -3.5t17 -1.5q28 0 48 18t42 57z" />
<glyph unicode="&#x2260;" horiz-adv-x="541" d="M382 514l-43 -96h151v-46h-169l-66 -144h235v-46h-253l-51 -113l-36 16l44 97h-144v46h163l64 144h-227v46h245l51 112z" />
<glyph unicode="&#x2264;" horiz-adv-x="541" d="M487 110l-432 226v47l432 226v-56l-383 -192v-2l383 -193v-56zM490 21h-440v47h440v-47z" />
<glyph unicode="&#x2265;" horiz-adv-x="541" d="M56 609l432 -226v-47l-432 -226v56l382 192v2l-382 193v56zM489 21h-438v47h438v-47z" />
<glyph unicode="&#x25ca;" horiz-adv-x="550" d="M495 369l-194 -411h-56l-191 411l194 411h55zM433 367l-140 296q-10 25 -18 56h-2q-14 -45 -19 -56l-138 -292l140 -298q12 -32 17 -55h3q7 31 17 54z" />
<glyph unicode="&#xe000;" horiz-adv-x="545" d="M0 545h545v-545h-545v545z" />
</font>
</defs>
</svg>
